<svg xmlns="http://www.w3.org/2000/svg" viewBox="0 0 29 25"><path d="M22 22.6c-1.4 0-2.6-1-2.8-2.5H9.4c-.2 1.4-1.4 2.4-2.8 2.4s-2.6-1-2.8-2.4h-3v-3.6H1c-.3-.2-.4-.6-.4-1v-11c0-.3.1-.7.4-.9s.6-.4.9-.4h15c.7 0 1.3.6 1.3 1.3v4.2h6.7c.5 0 1 .2 1.3.5.4.3.6.8.6 1.3v3l1.7.8V20h-3.7c-.2 1.5-1.4 2.6-2.8 2.6zm0-4.9c-1.1 0-2.1 1-2 2.1 0 1.1 1 2.1 2.1 2.1s2.1-.9 2.1-2.1c0-.6-.2-1.1-.6-1.5-.5-.3-1.1-.6-1.6-.6zm-15.4 0c-1.1 0-2.1 1-2 2.1 0 1.1 1 2.1 2.1 2.1s2.1-.9 2.1-2.1c0-.6-.2-1.1-.6-1.5-.5-.3-1.1-.6-1.6-.6zm18.2 1.7h3v-4.5l-1.4-.7h-4.8V9.5h-3.5v6.1c0 .3-.1.7-.4.9-.3.2-.6.4-.9.4H1.5v2.6h2.3c.2-1.4 1.4-2.3 2.8-2.3s2.5 1 2.8 2.3h9.8c.3-1.3 1.4-2.3 2.8-2.3s2.5.9 2.8 2.2zM1.9 4c-.4 0-.7.2-.7.6v11c0 .2.1.3.2.4.1.1.3.2.5.2h15c.2 0 .3-.1.5-.2.1-.1.2-.3.2-.4v-11c0-.3-.3-.6-.6-.6H1.9zm20.4 9.5h3.8v-2.9c0-.3-.1-.6-.4-.8-.2-.2-.5-.3-.9-.3h-2.6l.1 4z" fill="#fff"/></svg>