<svg id="Layer_1" xmlns="http://www.w3.org/2000/svg" viewBox="0 0 29 25"><style>.st0{fill:none;stroke:#fff;stroke-miterlimit:10}</style><g id="Layer_2_1_"><path class="st0" d="M23.9 9.8c0 .9-1.7 1.6-1.9 2.4-.3.9.7 2.4.1 3.1-.5.7-2.3.3-3 .8-.7.5-.8 2.3-1.7 2.6-.8.3-2-1.1-2.9-1.1s-2.1 1.4-2.9 1.1c-.9-.3-1-2.1-1.7-2.6s-2.5-.1-3-.8.5-2.2.2-3-1.9-1.5-1.9-2.4 1.7-1.6 1.9-2.4c.3-1-.7-2.5-.1-3.2.5-.7 2.3-.3 3-.8s.8-2.3 1.7-2.6c.8-.3 2 1.1 2.9 1.1S16.7.6 17.5.9c.9.3 1 2.1 1.7 2.6s2.5.1 3 .8-.4 2.2-.2 3.1c.3.8 1.9 1.5 1.9 2.4z"/><circle class="st0" cx="14.6" cy="9.8" r="5.6"/><path class="st0" d="M17.5 18.8c-.8.3-2-1.1-2.9-1.1s-2.1 1.4-2.9 1.1c-.9-.3-1-2.1-1.7-2.6l-2.1 6.3 3-1.2 1.8 2.8 1.8-5.6 1.8 5.6 1.8-2.8 3 1.2-2-6.2c-.6.7-.7 2.2-1.6 2.5z"/></g></svg>